<svg xmlns="http://www.w3.org/2000/svg" viewBox="0 0 1640 864" width="1640" height="864" font-family="Segoe UI, sans-serif">
<defs>
<filter id="shadow" x="-20%" y="-20%" width="140%" height="140%">
  <feDropShadow dx="0" dy="2" stdDeviation="4" flood-color="#1c2430" flood-opacity="0.12"/>
</filter>

<marker id="arrow" viewBox="0 0 10 10" refX="8" refY="5" markerWidth="8" markerHeight="8" orient="auto-start-reverse">
  <path d="M0,0 L10,5 L0,10 z" fill="#55606e"/>
</marker>
<marker id="arrow-ctrl" viewBox="0 0 10 10" refX="8" refY="5" markerWidth="7" markerHeight="7" orient="auto-start-reverse">
  <path d="M0,0 L10,5 L0,10 z" fill="#4C5FD6"/>
</marker>

</defs>
<rect x="0" y="0" width="1640" height="864" rx="0" ry="0" fill="#fbfcfe" /><text x="820.0" y="40" font-size="21" font-weight="800" fill="#1c2430" text-anchor="middle" font-family="Segoe UI, sans-serif">EC Mockup &#8211; データフロー</text><rect x="46" y="70" width="1196" height="142" rx="18" ry="18" fill="#EAF2FF" stroke="#2F6FED" stroke-width="1.4" stroke-dasharray="6,5" /><rect x="56" y="76" width="32.2" height="24" rx="12" ry="12" fill="#EAF2FF" stroke="#2F6FED" stroke-width="1.2" /><text x="72.1" y="92.5" font-size="12.5" font-weight="700" fill="#2F6FED" text-anchor="middle" font-family="Segoe UI, sans-serif">入力</text><symbol id="ic1" viewBox="0 0 24 24"><path d="M12 .297c-6.63 0-12 5.373-12 12 0 5.303 3.438 9.8 8.205 11.385.6.113.82-.258.82-.577 0-.285-.01-1.04-.015-2.04-3.338.724-4.042-1.61-4.042-1.61C4.422 18.07 3.633 17.7 3.633 17.7c-1.087-.744.084-.729.084-.729 1.205.084 1.838 1.236 1.838 1.236 1.07 1.835 2.809 1.305 3.495.998.108-.776.417-1.305.76-1.605-2.665-.3-5.466-1.332-5.466-5.93 0-1.31.465-2.38 1.235-3.22-.135-.303-.54-1.523.105-3.176 0 0 1.005-.322 3.3 1.23.96-.267 1.98-.399 3-.405 1.02.006 2.04.138 3 .405 2.28-1.552 3.285-1.23 3.285-1.23.645 1.653.24 2.873.12 3.176.765.84 1.23 1.91 1.23 3.22 0 4.61-2.805 5.625-5.475 5.92.42.36.81 1.096.81 2.22 0 1.606-.015 2.896-.015 3.286 0 .315.21.69.825.57C20.565 22.092 24 17.592 24 12.297c0-6.627-5.373-12-12-12"/></symbol><rect x="70" y="100" width="260" height="84" rx="14" ry="14" fill="#2F6FED" /><rect x="70" y="105" width="260" height="79" rx="14" ry="14" fill="#ffffff" stroke="#dfe3ea" stroke-width="1.3" filter="url(#shadow)"/><circle cx="106" cy="145.0" r="21" fill="#EAF2FF"/><use href="#ic1" x="94" y="133.0" width="24" height="24" fill="#2F6FED"/><circle cx="314" cy="120" r="11" fill="#EAF2FF" stroke="#2F6FED" stroke-width="1"/><text x="314" y="124" font-size="11" font-weight="700" text-anchor="middle" fill="#2F6FED" font-family="Segoe UI, sans-serif">A</text><text x="139" y="141.0" font-size="15.5" font-weight="700" fill="#1c2430" font-family="Segoe UI, sans-serif">GitHub リポジトリ</text><text x="139" y="161.0" font-size="11.5" fill="#66707d" font-family="Segoe UI, sans-serif">テンプレート HTML/CSS/JS</text><symbol id="ic2" viewBox="0 0 24 24"><path d="M12,3C7.58,3 4,4.79 4,7C4,9.21 7.58,11 12,11C16.42,11 20,9.21 20,7C20,4.79 16.42,3 12,3M4,9V12C4,14.21 7.58,16 12,16C16.42,16 20,14.21 20,12V9C20,11.21 16.42,13 12,13C7.58,13 4,11.21 4,9M4,14V17C4,19.21 7.58,21 12,21C16.42,21 20,19.21 20,17V14C20,16.21 16.42,18 12,18C7.58,18 4,16.21 4,14Z"/></symbol><rect x="366" y="100" width="260" height="84" rx="14" ry="14" fill="#2F6FED" /><rect x="366" y="105" width="260" height="79" rx="14" ry="14" fill="#ffffff" stroke="#dfe3ea" stroke-width="1.3" filter="url(#shadow)"/><circle cx="402" cy="145.0" r="21" fill="#EAF2FF"/><use href="#ic2" x="390" y="133.0" width="24" height="24" fill="#2F6FED"/><circle cx="610" cy="120" r="11" fill="#EAF2FF" stroke="#2F6FED" stroke-width="1"/><text x="610" y="124" font-size="11" font-weight="700" text-anchor="middle" fill="#2F6FED" font-family="Segoe UI, sans-serif">C</text><text x="435" y="141.0" font-size="15.5" font-weight="700" fill="#1c2430" font-family="Segoe UI, sans-serif">EC-database-tang</text><text x="435" y="161.0" font-size="11.5" fill="#66707d" font-family="Segoe UI, sans-serif">商品データ API</text><symbol id="ic3" viewBox="0 0 24 24"><path d="M6.5 20Q4.22 20 2.61 18.43 1 16.85 1 14.58 1 12.63 2.17 11.1 3.35 9.57 5.25 9.15 5.83 7.13 7.39 5.75 8.95 4.38 11 4.08V12.15L9.4 10.6L8 12L12 16L16 12L14.6 10.6L13 12.15V4.08Q15.58 4.43 17.29 6.39 19 8.35 19 11 20.73 11.2 21.86 12.5 23 13.78 23 15.5 23 17.38 21.69 18.69 20.38 20 18.5 20Z"/></symbol><rect x="662" y="100" width="260" height="84" rx="14" ry="14" fill="#2F6FED" /><rect x="662" y="105" width="260" height="79" rx="14" ry="14" fill="#ffffff" stroke="#dfe3ea" stroke-width="1.3" filter="url(#shadow)"/><circle cx="698" cy="145.0" r="21" fill="#EAF2FF"/><use href="#ic3" x="686" y="133.0" width="24" height="24" fill="#2F6FED"/><circle cx="906" cy="120" r="11" fill="#EAF2FF" stroke="#2F6FED" stroke-width="1"/><text x="906" y="124" font-size="11" font-weight="700" text-anchor="middle" fill="#2F6FED" font-family="Segoe UI, sans-serif">E</text><text x="731" y="141.0" font-size="15.5" font-weight="700" fill="#1c2430" font-family="Segoe UI, sans-serif">MakeShop</text><text x="731" y="161.0" font-size="11.5" fill="#66707d" font-family="Segoe UI, sans-serif">公開URL/FTP 画像・運用画像</text><symbol id="ic4" viewBox="0 0 24 24"><path d="M16.36,14C16.44,13.34 16.5,12.68 16.5,12C16.5,11.32 16.44,10.66 16.36,10H19.74C19.9,10.64 20,11.31 20,12C20,12.69 19.9,13.36 19.74,14M14.59,19.56C15.19,18.45 15.65,17.25 15.97,16H18.92C17.96,17.65 16.43,18.93 14.59,19.56M14.34,14H9.66C9.56,13.34 9.5,12.68 9.5,12C9.5,11.32 9.56,10.65 9.66,10H14.34C14.43,10.65 14.5,11.32 14.5,12C14.5,12.68 14.43,13.34 14.34,14M12,19.96C11.17,18.76 10.5,17.43 10.09,16H13.91C13.5,17.43 12.83,18.76 12,19.96M8,8H5.08C6.03,6.34 7.57,5.06 9.4,4.44C8.8,5.55 8.35,6.75 8,8M5.08,16H8C8.35,17.25 8.8,18.45 9.4,19.56C7.57,18.93 6.03,17.65 5.08,16M4.26,14C4.1,13.36 4,12.69 4,12C4,11.31 4.1,10.64 4.26,10H7.64C7.56,10.66 7.5,11.32 7.5,12C7.5,12.68 7.56,13.34 7.64,14M12,4.03C12.83,5.23 13.5,6.57 13.91,8H10.09C10.5,6.57 11.17,5.23 12,4.03M18.92,8H15.97C15.65,6.75 15.19,5.55 14.59,4.44C16.43,5.07 17.96,6.34 18.92,8M12,2C6.47,2 2,6.5 2,12A10,10 0 0,0 12,22A10,10 0 0,0 22,12A10,10 0 0,0 12,2Z"/></symbol><rect x="958" y="100" width="260" height="84" rx="14" ry="14" fill="#2F6FED" /><rect x="958" y="105" width="260" height="79" rx="14" ry="14" fill="#ffffff" stroke="#dfe3ea" stroke-width="1.3" filter="url(#shadow)"/><circle cx="994" cy="145.0" r="21" fill="#EAF2FF"/><use href="#ic4" x="982" y="133.0" width="24" height="24" fill="#2F6FED"/><circle cx="1202" cy="120" r="11" fill="#EAF2FF" stroke="#2F6FED" stroke-width="1"/><text x="1202" y="124" font-size="11" font-weight="700" text-anchor="middle" fill="#2F6FED" font-family="Segoe UI, sans-serif">G</text><text x="1027" y="141.0" font-size="15.5" font-weight="700" fill="#1c2430" font-family="Segoe UI, sans-serif">実ショップサイト</text><text x="1027" y="161.0" font-size="11.5" fill="#66707d" font-family="Segoe UI, sans-serif">HTML/CSS/JS 参照</text><rect x="46" y="220" width="1196" height="412" rx="20" ry="20" fill="#F4FBF6" stroke="#bfe6cc" stroke-width="1.6" /><symbol id="ic_py" viewBox="0 0 24 24"><path d="M14.25.18l.9.2.73.26.59.3.45.32.34.34.25.34.16.33.1.3.04.26.02.2-.01.13V8.5l-.05.63-.13.55-.21.46-.26.38-.3.31-.33.25-.35.19-.35.14-.33.1-.3.07-.26.04-.21.02H8.77l-.69.05-.59.14-.5.22-.41.27-.33.32-.27.35-.2.36-.15.37-.1.35-.07.32-.04.27-.02.21v3.06H3.17l-.21-.03-.28-.07-.32-.12-.35-.18-.36-.26-.36-.36-.35-.46-.32-.59-.28-.73-.21-.88-.14-1.05-.05-1.23.06-1.22.16-1.04.24-.87.32-.71.36-.57.4-.44.42-.33.42-.24.4-.16.36-.1.32-.05.24-.01h.16l.06.01h8.16v-.83H6.18l-.01-2.75-.02-.37.05-.34.11-.31.17-.28.25-.26.31-.23.38-.2.44-.18.51-.15.58-.12.64-.1.71-.06.77-.04.84-.02 1.27.05zm-6.3 1.98l-.23.33-.08.41.08.41.23.34.33.22.41.09.41-.09.33-.22.23-.34.08-.41-.08-.41-.23-.33-.33-.22-.41-.09-.41.09zm13.09 3.95l.28.06.32.12.35.18.36.27.36.35.35.47.32.59.28.73.21.88.14 1.04.05 1.23-.06 1.23-.16 1.04-.24.86-.32.71-.36.57-.4.45-.42.33-.42.24-.4.16-.36.09-.32.05-.24.02-.16-.01h-8.22v.82h5.84l.01 2.76.02.36-.05.34-.11.31-.17.29-.25.25-.31.24-.38.2-.44.17-.51.15-.58.13-.64.09-.71.07-.77.04-.84.01-1.27-.04-1.07-.14-.9-.2-.73-.25-.59-.3-.45-.33-.34-.34-.25-.34-.16-.33-.1-.3-.04-.25-.02-.2.01-.13v-5.34l.05-.64.13-.54.21-.46.26-.38.3-.32.33-.24.35-.2.35-.14.33-.1.3-.06.26-.04.21-.02.13-.01h5.84l.69-.05.59-.14.5-.21.41-.28.33-.32.27-.35.2-.36.15-.36.1-.35.07-.32.04-.28.02-.21V6.07h2.09l.14.01zm-6.47 14.25l-.23.33-.08.41.08.41.23.33.33.23.41.08.41-.08.33-.23.23-.33.08-.41-.08-.41-.23-.33-.33-.23-.41-.08-.41.08z"/></symbol><use href="#ic_py" x="64" y="232" width="20" height="20" fill="#2E7D46"/><text x="90" y="247" font-size="14.5" font-weight="800" fill="#1c2430" font-family="Segoe UI, sans-serif">PGM: Python プログラム</text><rect x="56" y="258" width="49.4" height="24" rx="12" ry="12" fill="#EAF9EF" stroke="#1E9E55" stroke-width="1.2" /><text x="80.7" y="274.5" font-size="12.5" font-weight="700" fill="#1E9E55" text-anchor="middle" font-family="Segoe UI, sans-serif">入力取得</text><symbol id="ic5" viewBox="0 0 24 24"><path d="M12,8A4,4 0 0,1 16,12A4,4 0 0,1 12,16A4,4 0 0,1 8,12A4,4 0 0,1 12,8M12,10A2,2 0 0,0 10,12A2,2 0 0,0 12,14A2,2 0 0,0 14,12A2,2 0 0,0 12,10M10,22C9.75,22 9.54,21.82 9.5,21.58L9.13,18.93C8.5,18.68 7.96,18.34 7.44,17.94L4.95,18.95C4.73,19.03 4.46,18.95 4.34,18.73L2.34,15.27C2.21,15.05 2.27,14.78 2.46,14.63L4.57,12.97L4.5,12L4.57,11L2.46,9.37C2.27,9.22 2.21,8.95 2.34,8.73L4.34,5.27C4.46,5.05 4.73,4.96 4.95,5.05L7.44,6.05C7.96,5.66 8.5,5.32 9.13,5.07L9.5,2.42C9.54,2.18 9.75,2 10,2H14C14.25,2 14.46,2.18 14.5,2.42L14.87,5.07C15.5,5.32 16.04,5.66 16.56,6.05L19.05,5.05C19.27,4.96 19.54,5.05 19.66,5.27L21.66,8.73C21.79,8.95 21.73,9.22 21.54,9.37L19.43,11L19.5,12L19.43,13L21.54,14.63C21.73,14.78 21.79,15.05 21.66,15.27L19.66,18.73C19.54,18.95 19.27,19.04 19.05,18.95L16.56,17.95C16.04,18.34 15.5,18.68 14.87,18.93L14.5,21.58C14.46,21.82 14.25,22 14,22H10M11.25,4L10.88,6.61C9.68,6.86 8.62,7.5 7.85,8.39L5.44,7.35L4.69,8.65L6.8,10.2C6.4,11.37 6.4,12.64 6.8,13.8L4.68,15.36L5.43,16.66L7.86,15.62C8.63,16.5 9.68,17.14 10.87,17.38L11.24,20H12.76L13.13,17.39C14.32,17.14 15.37,16.5 16.14,15.62L18.57,16.66L19.32,15.36L17.2,13.81C17.6,12.64 17.6,11.37 17.2,10.2L19.31,8.65L18.56,7.35L16.15,8.39C15.38,7.5 14.32,6.86 13.12,6.62L12.75,4H11.25Z"/></symbol><rect x="70" y="282" width="260" height="84" rx="14" ry="14" fill="#1E9E55" /><rect x="70" y="287" width="260" height="79" rx="14" ry="14" fill="#ffffff" stroke="#dfe3ea" stroke-width="1.3" filter="url(#shadow)"/><circle cx="106" cy="327.0" r="21" fill="#EAF9EF"/><use href="#ic5" x="94" y="315.0" width="24" height="24" fill="#1E9E55"/><circle cx="314" cy="302" r="11" fill="#EAF9EF" stroke="#1E9E55" stroke-width="1"/><text x="314" y="306" font-size="11" font-weight="700" text-anchor="middle" fill="#1E9E55" font-family="Segoe UI, sans-serif">B</text><text x="139" y="332.0" font-size="14" font-weight="700" fill="#1c2430" font-family="Segoe UI, sans-serif">Source Fetcher</text><symbol id="ic6" viewBox="0 0 24 24"><path d="M7 7H5A2 2 0 0 0 3 9V17H5V13H7V17H9V9A2 2 0 0 0 7 7M7 11H5V9H7M14 7H10V17H12V13H14A2 2 0 0 0 16 11V9A2 2 0 0 0 14 7M14 11H12V9H14M20 9V15H21V17H17V15H18V9H17V7H21V9Z"/></symbol><rect x="366" y="282" width="260" height="84" rx="14" ry="14" fill="#1E9E55" /><rect x="366" y="287" width="260" height="79" rx="14" ry="14" fill="#ffffff" stroke="#dfe3ea" stroke-width="1.3" filter="url(#shadow)"/><circle cx="402" cy="327.0" r="21" fill="#EAF9EF"/><use href="#ic6" x="390" y="315.0" width="24" height="24" fill="#1E9E55"/><circle cx="610" cy="302" r="11" fill="#EAF9EF" stroke="#1E9E55" stroke-width="1"/><text x="610" y="306" font-size="11" font-weight="700" text-anchor="middle" fill="#1E9E55" font-family="Segoe UI, sans-serif">D</text><text x="435" y="332.0" font-size="14" font-weight="700" fill="#1c2430" font-family="Segoe UI, sans-serif">Data Exporter</text><symbol id="ic7" viewBox="0 0 24 24"><path d="M6.5 20Q4.22 20 2.61 18.43 1 16.85 1 14.58 1 12.63 2.17 11.1 3.35 9.57 5.25 9.15 5.83 7.13 7.39 5.75 8.95 4.38 11 4.08V12.15L9.4 10.6L8 12L12 16L16 12L14.6 10.6L13 12.15V4.08Q15.58 4.43 17.29 6.39 19 8.35 19 11 20.73 11.2 21.86 12.5 23 13.78 23 15.5 23 17.38 21.69 18.69 20.38 20 18.5 20Z"/></symbol><rect x="662" y="282" width="260" height="84" rx="14" ry="14" fill="#1E9E55" /><rect x="662" y="287" width="260" height="79" rx="14" ry="14" fill="#ffffff" stroke="#dfe3ea" stroke-width="1.3" filter="url(#shadow)"/><circle cx="698" cy="327.0" r="21" fill="#EAF9EF"/><use href="#ic7" x="686" y="315.0" width="24" height="24" fill="#1E9E55"/><circle cx="906" cy="302" r="11" fill="#EAF9EF" stroke="#1E9E55" stroke-width="1"/><text x="906" y="306" font-size="11" font-weight="700" text-anchor="middle" fill="#1E9E55" font-family="Segoe UI, sans-serif">F</text><text x="731" y="332.0" font-size="14" font-weight="700" fill="#1c2430" font-family="Segoe UI, sans-serif">Image Fetcher</text><symbol id="ic8" viewBox="0 0 24 24"><path d="M20,19V7H4V19H20M20,3A2,2 0 0,1 22,5V19A2,2 0 0,1 20,21H4A2,2 0 0,1 2,19V5C2,3.89 2.9,3 4,3H20M13,17V15H18V17H13M9.58,13L5.57,9H8.4L11.7,12.3C12.09,12.69 12.09,13.33 11.7,13.72L8.42,17H5.59L9.58,13Z"/></symbol><rect x="958" y="282" width="260" height="84" rx="14" ry="14" fill="#1E9E55" /><rect x="958" y="287" width="260" height="79" rx="14" ry="14" fill="#ffffff" stroke="#dfe3ea" stroke-width="1.3" filter="url(#shadow)"/><circle cx="994" cy="327.0" r="21" fill="#EAF9EF"/><use href="#ic8" x="982" y="315.0" width="24" height="24" fill="#1E9E55"/><circle cx="1202" cy="302" r="11" fill="#EAF9EF" stroke="#1E9E55" stroke-width="1"/><text x="1202" y="306" font-size="11" font-weight="700" text-anchor="middle" fill="#1E9E55" font-family="Segoe UI, sans-serif">H</text><text x="1027" y="332.0" font-size="14" font-weight="700" fill="#1c2430" font-family="Segoe UI, sans-serif">Live Site Inspector</text><rect x="56" y="380" width="75.19999999999999" height="24" rx="12" ry="12" fill="#FFF6E6" stroke="#D98A11" stroke-width="1.2" /><text x="93.6" y="396.5" font-size="12.5" font-weight="700" fill="#D98A11" text-anchor="middle" font-family="Segoe UI, sans-serif">作業データ生成</text><symbol id="ic9" viewBox="0 0 24 24"><path d="M20,18H4V8H20M20,6H12L10,4H4C2.89,4 2,4.89 2,6V18A2,2 0 0,0 4,20H20A2,2 0 0,0 22,18V8C22,6.89 21.1,6 20,6Z"/></symbol><rect x="70" y="404" width="260" height="84" rx="14" ry="14" fill="#D98A11" /><rect x="70" y="409" width="260" height="79" rx="14" ry="14" fill="#ffffff" stroke="#dfe3ea" stroke-width="1.3" filter="url(#shadow)"/><circle cx="106" cy="449.0" r="21" fill="#FFF6E6"/><use href="#ic9" x="94" y="437.0" width="24" height="24" fill="#D98A11"/><circle cx="314" cy="424" r="11" fill="#FFF6E6" stroke="#D98A11" stroke-width="1"/><text x="314" y="428" font-size="11" font-weight="700" text-anchor="middle" fill="#D98A11" font-family="Segoe UI, sans-serif">I</text><text x="139" y="445.0" font-size="14" font-weight="700" fill="#1c2430" font-family="Segoe UI, sans-serif">work/source</text><text x="139" y="465.0" font-size="11.5" fill="#66707d" font-family="Segoe UI, sans-serif">作業ディレクトリ</text><symbol id="ic10" viewBox="0 0 24 24"><path d="M6,2A2,2 0 0,0 4,4V20A2,2 0 0,0 6,22H18A2,2 0 0,0 20,20V8L14,2H6M6,4H13V9H18V20H6V4M8,12V14H16V12H8M8,16V18H13V16H8Z"/></symbol><rect x="366" y="404" width="260" height="84" rx="14" ry="14" fill="#D98A11" /><rect x="366" y="409" width="260" height="79" rx="14" ry="14" fill="#ffffff" stroke="#dfe3ea" stroke-width="1.3" filter="url(#shadow)"/><circle cx="402" cy="449.0" r="21" fill="#FFF6E6"/><use href="#ic10" x="390" y="437.0" width="24" height="24" fill="#D98A11"/><circle cx="610" cy="424" r="11" fill="#FFF6E6" stroke="#D98A11" stroke-width="1"/><text x="610" y="428" font-size="11" font-weight="700" text-anchor="middle" fill="#D98A11" font-family="Segoe UI, sans-serif">J</text><text x="435" y="445.0" font-size="14" font-weight="700" fill="#1c2430" font-family="Segoe UI, sans-serif">work/data</text><text x="435" y="465.0" font-size="11.5" fill="#66707d" font-family="Segoe UI, sans-serif">中間データ</text><symbol id="ic11" viewBox="0 0 24 24"><path d="M7,15L11.5,9L15,13.5L17.5,10.5L21,15M22,4H14L12,2H6A2,2 0 0,0 4,4V16A2,2 0 0,0 6,18H22A2,2 0 0,0 24,16V6A2,2 0 0,0 22,4M2,6H0V11H0V20A2,2 0 0,0 2,22H20V20H2V6Z"/></symbol><rect x="662" y="404" width="260" height="84" rx="14" ry="14" fill="#D98A11" /><rect x="662" y="409" width="260" height="79" rx="14" ry="14" fill="#ffffff" stroke="#dfe3ea" stroke-width="1.3" filter="url(#shadow)"/><circle cx="698" cy="449.0" r="21" fill="#FFF6E6"/><use href="#ic11" x="686" y="437.0" width="24" height="24" fill="#D98A11"/><circle cx="906" cy="424" r="11" fill="#FFF6E6" stroke="#D98A11" stroke-width="1"/><text x="906" y="428" font-size="11" font-weight="700" text-anchor="middle" fill="#D98A11" font-family="Segoe UI, sans-serif">K</text><text x="731" y="445.0" font-size="14" font-weight="700" fill="#1c2430" font-family="Segoe UI, sans-serif">work/images</text><text x="731" y="465.0" font-size="11.5" fill="#66707d" font-family="Segoe UI, sans-serif">ローカル画像</text><symbol id="ic12" viewBox="0 0 24 24"><path d="M20,4H16.83L15,2H9L7.17,4H4A2,2 0 0,0 2,6V18A2,2 0 0,0 4,20H20A2,2 0 0,0 22,18V6A2,2 0 0,0 20,4M20,18H4V6H8.05L9.88,4H14.12L15.95,6H20V18M12,7A5,5 0 0,0 7,12A5,5 0 0,0 12,17A5,5 0 0,0 17,12A5,5 0 0,0 12,7M12,15A3,3 0 0,1 9,12A3,3 0 0,1 12,9A3,3 0 0,1 15,12A3,3 0 0,1 12,15Z"/></symbol><rect x="958" y="404" width="260" height="84" rx="14" ry="14" fill="#D98A11" /><rect x="958" y="409" width="260" height="79" rx="14" ry="14" fill="#ffffff" stroke="#dfe3ea" stroke-width="1.3" filter="url(#shadow)"/><circle cx="994" cy="449.0" r="21" fill="#FFF6E6"/><use href="#ic12" x="982" y="437.0" width="24" height="24" fill="#D98A11"/><circle cx="1202" cy="424" r="11" fill="#FFF6E6" stroke="#D98A11" stroke-width="1"/><text x="1202" y="428" font-size="11" font-weight="700" text-anchor="middle" fill="#D98A11" font-family="Segoe UI, sans-serif">L</text><text x="1027" y="445.0" font-size="14" font-weight="700" fill="#1c2430" font-family="Segoe UI, sans-serif">work/live-site</text><text x="1027" y="465.0" font-size="11.5" fill="#66707d" font-family="Segoe UI, sans-serif">比較用スナップショット</text><rect x="56" y="506" width="58.0" height="24" rx="12" ry="12" fill="#F5EEFF" stroke="#8A3FE0" stroke-width="1.2" /><text x="85.0" y="522.5" font-size="12.5" font-weight="700" fill="#8A3FE0" text-anchor="middle" font-family="Segoe UI, sans-serif">モック生成</text><symbol id="ic13" viewBox="0 0 24 24"><path d="M7.5,5.6L5,7L6.4,4.5L5,2L7.5,3.4L10,2L8.6,4.5L10,7L7.5,5.6M19.5,15.4L22,14L20.6,16.5L22,19L19.5,17.6L17,19L18.4,16.5L17,14L19.5,15.4M22,2L20.6,4.5L22,7L19.5,5.6L17,7L18.4,4.5L17,2L19.5,3.4L22,2M13.34,12.78L15.78,10.34L13.66,8.22L11.22,10.66L13.34,12.78M14.37,7.29L16.71,9.63C17.1,10 17.1,10.65 16.71,11.04L5.04,22.71C4.65,23.1 4,23.1 3.63,22.71L1.29,20.37C0.9,20 0.9,19.35 1.29,18.96L12.96,7.29C13.35,6.9 14,6.9 14.37,7.29Z"/></symbol><rect x="70" y="530" width="300" height="84" rx="14" ry="14" fill="#8A3FE0" /><rect x="70" y="535" width="300" height="79" rx="14" ry="14" fill="#ffffff" stroke="#dfe3ea" stroke-width="1.3" filter="url(#shadow)"/><circle cx="106" cy="575.0" r="21" fill="#F5EEFF"/><use href="#ic13" x="94" y="563.0" width="24" height="24" fill="#8A3FE0"/><circle cx="354" cy="550" r="11" fill="#F5EEFF" stroke="#8A3FE0" stroke-width="1"/><text x="354" y="554" font-size="11" font-weight="700" text-anchor="middle" fill="#8A3FE0" font-family="Segoe UI, sans-serif">M</text><text x="139" y="571.0" font-size="14.5" font-weight="700" fill="#1c2430" font-family="Segoe UI, sans-serif">Normalizer</text><text x="139" y="591.0" font-size="11.5" fill="#66707d" font-family="Segoe UI, sans-serif">データ正規化</text><symbol id="ic14" viewBox="0 0 24 24"><path d="M13.78 15.3L19.78 21.3L21.89 19.14L15.89 13.14L13.78 15.3M17.5 10.1C17.11 10.1 16.69 10.05 16.36 9.91L4.97 21.25L2.86 19.14L10.27 11.74L8.5 9.96L7.78 10.66L6.33 9.25V12.11L5.63 12.81L2.11 9.25L2.81 8.55H5.62L4.22 7.14L7.78 3.58C8.95 2.41 10.83 2.41 12 3.58L9.89 5.74L11.3 7.14L10.59 7.85L12.38 9.63L14.2 7.75C14.06 7.42 14 7 14 6.63C14 4.66 15.56 3.11 17.5 3.11C18.09 3.11 18.61 3.25 19.08 3.53L16.41 6.2L17.91 7.7L20.58 5.03C20.86 5.5 21 6 21 6.63C21 8.55 19.45 10.1 17.5 10.1Z"/></symbol><rect x="494" y="530" width="300" height="84" rx="14" ry="14" fill="#8A3FE0" /><rect x="494" y="535" width="300" height="79" rx="14" ry="14" fill="#ffffff" stroke="#dfe3ea" stroke-width="1.3" filter="url(#shadow)"/><circle cx="530" cy="575.0" r="21" fill="#F5EEFF"/><use href="#ic14" x="518" y="563.0" width="24" height="24" fill="#8A3FE0"/><circle cx="778" cy="550" r="11" fill="#F5EEFF" stroke="#8A3FE0" stroke-width="1"/><text x="778" y="554" font-size="11" font-weight="700" text-anchor="middle" fill="#8A3FE0" font-family="Segoe UI, sans-serif">N</text><text x="563" y="571.0" font-size="14.5" font-weight="700" fill="#1c2430" font-family="Segoe UI, sans-serif">Static Builder</text><text x="563" y="591.0" font-size="11.5" fill="#66707d" font-family="Segoe UI, sans-serif">静的サイト生成</text><symbol id="ic15" viewBox="0 0 24 24"><path d="M19,3H14V5H19V18L14,12V21H19A2,2 0 0,0 21,19V5C21,3.89 20.1,3 19,3M10,18H5L10,12M10,3H5C3.89,3 3,3.89 3,5V19A2,2 0 0,0 5,21H10V23H12V1H10V3Z"/></symbol><rect x="918" y="530" width="300" height="84" rx="14" ry="14" fill="#8A3FE0" /><rect x="918" y="535" width="300" height="79" rx="14" ry="14" fill="#ffffff" stroke="#dfe3ea" stroke-width="1.3" filter="url(#shadow)"/><circle cx="954" cy="575.0" r="21" fill="#F5EEFF"/><use href="#ic15" x="942" y="563.0" width="24" height="24" fill="#8A3FE0"/><circle cx="1202" cy="550" r="11" fill="#F5EEFF" stroke="#8A3FE0" stroke-width="1"/><text x="1202" y="554" font-size="11" font-weight="700" text-anchor="middle" fill="#8A3FE0" font-family="Segoe UI, sans-serif">O</text><text x="987" y="571.0" font-size="14.5" font-weight="700" fill="#1c2430" font-family="Segoe UI, sans-serif">差分確認</text><text x="987" y="591.0" font-size="11.5" fill="#66707d" font-family="Segoe UI, sans-serif">比較チェック</text><rect x="46" y="644" width="1196" height="142" rx="18" ry="18" fill="#FFF1E6" stroke="#E0631E" stroke-width="1.4" stroke-dasharray="6,5" /><rect x="56" y="650" width="32.2" height="24" rx="12" ry="12" fill="#FFF1E6" stroke="#E0631E" stroke-width="1.2" /><text x="72.1" y="666.5" font-size="12.5" font-weight="700" fill="#E0631E" text-anchor="middle" font-family="Segoe UI, sans-serif">出力</text><symbol id="ic16" viewBox="0 0 24 24"><path d="M21,16.5C21,16.88 20.79,17.21 20.47,17.38L12.57,21.82C12.41,21.94 12.21,22 12,22C11.79,22 11.59,21.94 11.43,21.82L3.53,17.38C3.21,17.21 3,16.88 3,16.5V7.5C3,7.12 3.21,6.79 3.53,6.62L11.43,2.18C11.59,2.06 11.79,2 12,2C12.21,2 12.41,2.06 12.57,2.18L20.47,6.62C20.79,6.79 21,7.12 21,7.5V16.5M12,4.15L10.11,5.22L16,8.61L17.96,7.5L12,4.15M6.04,7.5L12,10.85L13.96,9.75L8.08,6.35L6.04,7.5M5,15.91L11,19.29V12.58L5,9.21V15.91M19,15.91V9.21L13,12.58V19.29L19,15.91Z"/></symbol><rect x="70" y="674" width="300" height="84" rx="14" ry="14" fill="#E0631E" /><rect x="70" y="679" width="300" height="79" rx="14" ry="14" fill="#ffffff" stroke="#dfe3ea" stroke-width="1.3" filter="url(#shadow)"/><circle cx="106" cy="719.0" r="21" fill="#FFF1E6"/><use href="#ic16" x="94" y="707.0" width="24" height="24" fill="#E0631E"/><circle cx="354" cy="694" r="11" fill="#FFF1E6" stroke="#E0631E" stroke-width="1"/><text x="354" y="698" font-size="11" font-weight="700" text-anchor="middle" fill="#E0631E" font-family="Segoe UI, sans-serif">P</text><text x="139" y="715.0" font-size="14.5" font-weight="700" fill="#1c2430" font-family="Segoe UI, sans-serif">output/mock-site</text><text x="139" y="735.0" font-size="11.5" fill="#66707d" font-family="Segoe UI, sans-serif">生成物</text><symbol id="ic17" viewBox="0 0 24 24"><path d="M4,1H20A1,1 0 0,1 21,2V6A1,1 0 0,1 20,7H4A1,1 0 0,1 3,6V2A1,1 0 0,1 4,1M4,9H20A1,1 0 0,1 21,10V14A1,1 0 0,1 20,15H4A1,1 0 0,1 3,14V10A1,1 0 0,1 4,9M4,17H20A1,1 0 0,1 21,18V22A1,1 0 0,1 20,23H4A1,1 0 0,1 3,22V18A1,1 0 0,1 4,17M9,5H10V3H9V5M9,13H10V11H9V13M9,21H10V19H9V21M5,3V5H7V3H5M5,11V13H7V11H5M5,19V21H7V19H5Z"/></symbol><rect x="494" y="674" width="300" height="84" rx="14" ry="14" fill="#E0631E" /><rect x="494" y="679" width="300" height="79" rx="14" ry="14" fill="#ffffff" stroke="#dfe3ea" stroke-width="1.3" filter="url(#shadow)"/><circle cx="530" cy="719.0" r="21" fill="#FFF1E6"/><use href="#ic17" x="518" y="707.0" width="24" height="24" fill="#E0631E"/><circle cx="778" cy="694" r="11" fill="#FFF1E6" stroke="#E0631E" stroke-width="1"/><text x="778" y="698" font-size="11" font-weight="700" text-anchor="middle" fill="#E0631E" font-family="Segoe UI, sans-serif">Q</text><text x="563" y="715.0" font-size="14.5" font-weight="700" fill="#1c2430" font-family="Segoe UI, sans-serif">Preview Server</text><text x="563" y="735.0" font-size="11.5" fill="#66707d" font-family="Segoe UI, sans-serif">ローカル配信</text><symbol id="ic18" viewBox="0 0 24 24"><path d="M12 0C8.21 0 4.831 1.757 2.632 4.501l3.953 6.848A5.454 5.454 0 0 1 12 6.545h10.691A12 12 0 0 0 12 0zM1.931 5.47A11.943 11.943 0 0 0 0 12c0 6.012 4.42 10.991 10.189 11.864l3.953-6.847a5.45 5.45 0 0 1-6.865-2.29zm13.342 2.166a5.446 5.446 0 0 1 1.45 7.09l.002.001h-.002l-5.344 9.257c.206.01.413.016.621.016 6.627 0 12-5.373 12-12 0-1.54-.29-3.011-.818-4.364zM12 16.364a4.364 4.364 0 1 1 0-8.728 4.364 4.364 0 0 1 0 8.728Z"/></symbol><rect x="918" y="674" width="300" height="84" rx="14" ry="14" fill="#E0631E" /><rect x="918" y="679" width="300" height="79" rx="14" ry="14" fill="#ffffff" stroke="#dfe3ea" stroke-width="1.3" filter="url(#shadow)"/><circle cx="954" cy="719.0" r="21" fill="#FFF1E6"/><use href="#ic18" x="942" y="707.0" width="24" height="24" fill="#E0631E"/><circle cx="1202" cy="694" r="11" fill="#FFF1E6" stroke="#E0631E" stroke-width="1"/><text x="1202" y="698" font-size="11" font-weight="700" text-anchor="middle" fill="#E0631E" font-family="Segoe UI, sans-serif">R</text><text x="987" y="715.0" font-size="14.5" font-weight="700" fill="#1c2430" font-family="Segoe UI, sans-serif">ブラウザ確認</text><text x="987" y="735.0" font-size="11.5" fill="#66707d" font-family="Segoe UI, sans-serif">動作確認</text><rect x="1300" y="262" width="260" height="496" rx="20" ry="20" fill="#232A3B" filter="url(#shadow)"/><symbol id="ic_s" viewBox="0 0 24 24"><path d="M20,19V7H4V19H20M20,3A2,2 0 0,1 22,5V19A2,2 0 0,1 20,21H4A2,2 0 0,1 2,19V5C2,3.89 2.9,3 4,3H20M13,17V15H18V17H13M9.58,13L5.57,9H8.4L11.7,12.3C12.09,12.69 12.09,13.33 11.7,13.72L8.42,17H5.59L9.58,13Z"/></symbol><circle cx="1430.0" cy="316" r="26" fill="#323B52"/><use href="#ic_s" x="1415.0" y="301" width="30" height="30" fill="#8FA6FF"/><text x="1430.0" y="366" font-size="17" font-weight="800" fill="#ffffff" text-anchor="middle" font-family="Segoe UI, sans-serif">CLI / GUI</text><text x="1430.0" y="386" font-size="11.5" fill="#a9b4cc" text-anchor="middle" font-family="Segoe UI, sans-serif">操作エントリポイント (S)</text><line x1="1328" y1="410" x2="1532" y2="410" stroke="#3c4560" stroke-width="1"/><text x="1430.0" y="432" font-size="11" fill="#a9b4cc" text-anchor="middle" font-family="Segoe UI, sans-serif">各処理を起動・監視</text><line x1="46" y1="830" x2="92" y2="830" stroke="#55606e" stroke-width="2" marker-end="url(#arrow)"/><text x="102" y="834" font-size="12" fill="#4a5361" font-family="Segoe UI, sans-serif">データフロー</text><line x1="236" y1="830" x2="282" y2="830" stroke="#4C5FD6" stroke-width="1.8" stroke-dasharray="5,4" marker-end="url(#arrow-ctrl)"/><text x="292" y="834" font-size="12" fill="#4a5361" font-family="Segoe UI, sans-serif">CLI / GUI からの起動・制御</text>
<line x1="176.0" y1="184" x2="176.0" y2="282" stroke="#55606e" stroke-width="2" marker-end="url(#arrow)"/><line x1="472.0" y1="184" x2="472.0" y2="282" stroke="#55606e" stroke-width="2" marker-end="url(#arrow)"/><line x1="768.0" y1="184" x2="768.0" y2="282" stroke="#55606e" stroke-width="2" marker-end="url(#arrow)"/><line x1="1064.0" y1="184" x2="1064.0" y2="282" stroke="#55606e" stroke-width="2" marker-end="url(#arrow)"/><line x1="176.0" y1="366" x2="176.0" y2="404" stroke="#55606e" stroke-width="2" marker-end="url(#arrow)"/><line x1="472.0" y1="366" x2="472.0" y2="404" stroke="#55606e" stroke-width="2" marker-end="url(#arrow)"/><line x1="768.0" y1="366" x2="768.0" y2="404" stroke="#55606e" stroke-width="2" marker-end="url(#arrow)"/><line x1="1064.0" y1="366" x2="1064.0" y2="404" stroke="#55606e" stroke-width="2" marker-end="url(#arrow)"/><path d="M176.0,488 C176.0,514 220.0,504 220.0,530" fill="none" stroke="#55606e" stroke-width="2" marker-end="url(#arrow)"/><path d="M472.0,488 C472.0,514 220.0,504 220.0,530" fill="none" stroke="#55606e" stroke-width="2" marker-end="url(#arrow)"/><path d="M768.0,488 C768.0,514 220.0,504 220.0,530" fill="none" stroke="#55606e" stroke-width="2" marker-end="url(#arrow)"/><path d="M1064.0,488 C1064.0,528 1108.0,490 1108.0,530" fill="none" stroke="#55606e" stroke-width="2" marker-end="url(#arrow)"/><line x1="370" y1="572.0" x2="494" y2="572.0" stroke="#55606e" stroke-width="2" marker-end="url(#arrow)"/><line x1="794" y1="572.0" x2="918" y2="572.0" stroke="#55606e" stroke-width="2" marker-end="url(#arrow)"/><line x1="644.0" y1="614" x2="220.0" y2="674" stroke="#55606e" stroke-width="2" marker-end="url(#arrow)"/><line x1="370" y1="716.0" x2="494" y2="716.0" stroke="#55606e" stroke-width="2" marker-end="url(#arrow)"/><line x1="794" y1="716.0" x2="918" y2="716.0" stroke="#55606e" stroke-width="2" marker-end="url(#arrow)"/><path d="M1300,264 L230.0,264 L230.0,282" fill="none" stroke="#4C5FD6" stroke-width="1.8" stroke-dasharray="5,4" marker-end="url(#arrow-ctrl)"/><path d="M1300,264 L526.0,264 L526.0,282" fill="none" stroke="#4C5FD6" stroke-width="1.8" stroke-dasharray="5,4" marker-end="url(#arrow-ctrl)"/><path d="M1300,264 L822.0,264 L822.0,282" fill="none" stroke="#4C5FD6" stroke-width="1.8" stroke-dasharray="5,4" marker-end="url(#arrow-ctrl)"/><path d="M1300,264 L1118.0,264 L1118.0,282" fill="none" stroke="#4C5FD6" stroke-width="1.8" stroke-dasharray="5,4" marker-end="url(#arrow-ctrl)"/><path d="M1300,512 L768,512 L768,530" fill="none" stroke="#4C5FD6" stroke-width="1.8" stroke-dasharray="5,4" marker-end="url(#arrow-ctrl)"/><path d="M1300,656 L768,656 L768,674" fill="none" stroke="#4C5FD6" stroke-width="1.8" stroke-dasharray="5,4" marker-end="url(#arrow-ctrl)"/>
</svg>